<?xml version="1.0" encoding="UTF-8"?>
<svg xmlns="http://www.w3.org/2000/svg" viewBox="0 0 2000 1001" preserveAspectRatio="xMidYMid meet">
  <defs>
    <pattern id="dots" x="0" y="0" width="14" height="14" patternUnits="userSpaceOnUse">
      <circle cx="3" cy="3" r="2.4" fill="#AFDDE9"/>
    </pattern>
    <clipPath id="land">
      <!-- North America -->
      <path d="M 80 170 L 130 140 L 180 130 L 240 130 L 300 130 L 360 130 L 410 140 L 450 155 L 480 175 L 500 190 L 510 210 L 520 235 L 530 260 L 540 285 L 545 310 L 540 330 L 520 350 L 490 360 L 470 380 L 450 405 L 420 420 L 395 425 L 370 415 L 350 395 L 335 380 L 320 365 L 305 340 L 290 320 L 280 305 L 265 295 L 245 290 L 225 290 L 210 285 L 195 270 L 180 255 L 165 245 L 150 230 L 135 215 L 120 200 L 105 190 Z" />
      <!-- Greenland -->
      <path d="M 540 110 L 580 100 L 615 105 L 645 125 L 660 155 L 660 185 L 645 215 L 620 235 L 590 245 L 560 240 L 540 220 L 530 195 L 530 165 L 535 135 Z" />
      <!-- Central America -->
      <path d="M 425 425 L 460 440 L 480 460 L 490 485 L 500 510 L 515 525 L 530 540 L 540 555 Z" />
      <!-- South America -->
      <path d="M 525 545 L 560 550 L 600 560 L 635 575 L 655 600 L 670 630 L 680 660 L 690 695 L 695 730 L 690 765 L 680 795 L 665 820 L 645 840 L 625 855 L 605 855 L 590 840 L 580 815 L 575 785 L 575 755 L 570 720 L 560 685 L 550 650 L 540 615 L 530 580 Z" />
      <!-- Europe (continent) -->
      <path d="M 950 195 L 990 190 L 1020 195 L 1055 205 L 1085 215 L 1110 230 L 1130 245 L 1145 265 L 1150 285 L 1140 305 L 1115 320 L 1085 320 L 1055 315 L 1025 305 L 995 295 L 970 280 L 950 260 L 940 240 L 945 220 Z" />
      <!-- Scandinavia -->
      <path d="M 1010 130 L 1045 125 L 1075 135 L 1095 155 L 1100 180 L 1090 200 L 1075 215 L 1055 215 L 1035 200 L 1020 180 L 1015 160 Z" />
      <!-- UK / Ireland -->
      <path d="M 935 215 L 950 220 L 955 240 L 945 255 L 925 250 L 920 230 Z" />
      <!-- Africa -->
      <path d="M 950 350 L 990 340 L 1030 340 L 1065 350 L 1095 365 L 1120 385 L 1140 410 L 1155 440 L 1165 475 L 1170 510 L 1175 545 L 1175 580 L 1165 615 L 1145 650 L 1120 680 L 1090 705 L 1055 720 L 1020 720 L 985 710 L 955 690 L 935 660 L 925 625 L 920 590 L 920 555 L 925 520 L 935 485 L 945 450 L 950 415 L 950 385 Z" />
      <!-- Madagascar -->
      <path d="M 1230 615 L 1245 625 L 1255 645 L 1255 670 L 1245 695 L 1230 700 L 1220 685 L 1215 660 L 1215 635 Z" />
      <!-- Middle East / Arabia -->
      <path d="M 1180 360 L 1215 360 L 1245 370 L 1265 390 L 1275 420 L 1280 450 L 1275 475 L 1255 490 L 1230 490 L 1205 480 L 1185 460 L 1175 435 L 1175 405 L 1175 380 Z" />
      <!-- Russia / Northern Asia -->
      <path d="M 1100 130 L 1170 125 L 1240 130 L 1310 135 L 1380 140 L 1450 145 L 1520 150 L 1590 160 L 1655 175 L 1700 195 L 1730 215 L 1745 240 L 1745 265 L 1725 285 L 1695 295 L 1655 295 L 1610 290 L 1565 285 L 1520 280 L 1475 275 L 1430 275 L 1385 275 L 1340 275 L 1295 275 L 1250 270 L 1210 265 L 1170 255 L 1140 240 L 1115 220 L 1100 195 L 1095 165 Z" />
      <!-- China / East Asia -->
      <path d="M 1450 295 L 1510 295 L 1565 300 L 1615 315 L 1655 335 L 1685 360 L 1700 385 L 1700 410 L 1685 430 L 1660 445 L 1625 450 L 1585 450 L 1545 445 L 1510 435 L 1480 420 L 1460 400 L 1450 375 L 1445 345 L 1448 320 Z" />
      <!-- India -->
      <path d="M 1320 380 L 1355 380 L 1385 395 L 1405 415 L 1410 440 L 1405 470 L 1390 495 L 1370 515 L 1350 525 L 1330 520 L 1315 500 L 1305 475 L 1305 445 L 1310 415 Z" />
      <!-- Southeast Asia mainland -->
      <path d="M 1550 470 L 1580 470 L 1605 485 L 1620 510 L 1620 540 L 1605 565 L 1580 575 L 1555 570 L 1540 550 L 1535 525 L 1540 500 Z" />
      <!-- Indonesia / Philippines (multiple islands) -->
      <path d="M 1610 595 L 1650 595 L 1690 605 L 1715 620 L 1715 640 L 1690 645 L 1650 645 L 1610 640 L 1590 625 Z" />
      <path d="M 1735 580 L 1755 580 L 1770 595 L 1770 615 L 1755 625 L 1735 620 L 1725 605 Z" />
      <!-- Japan -->
      <path d="M 1760 305 L 1780 310 L 1795 330 L 1800 360 L 1790 385 L 1775 395 L 1760 385 L 1755 360 L 1750 335 Z" />
      <!-- Australia -->
      <path d="M 1620 720 L 1670 715 L 1715 720 L 1755 735 L 1790 755 L 1815 780 L 1820 810 L 1805 835 L 1775 850 L 1735 855 L 1690 855 L 1645 850 L 1610 840 L 1585 820 L 1575 795 L 1580 770 L 1595 745 Z" />
      <!-- New Zealand -->
      <path d="M 1860 850 L 1880 855 L 1895 870 L 1895 890 L 1880 905 L 1865 905 L 1855 890 L 1850 870 Z" />
    </clipPath>
  </defs>
  <rect x="0" y="0" width="2000" height="1001" fill="url(#dots)" clip-path="url(#land)"/>
</svg>
