<?xml version="1.0" encoding="UTF-8" standalone="no"?>
<!-- Created with Inkscape (http://www.inkscape.org/) -->

<svg
   version="1.1"
   id="svg1"
   width="584.96002"
   height="373.12"
   viewBox="0 0 584.96002 373.12"
   sodipodi:docname="ASIGHT Logo + Wordmark long final.svg"
   inkscape:version="1.4.3 (0d15f75, 2025-12-25)"
   inkscape:export-filename="ASIGHT Logo + Wordmark long final.png"
   inkscape:export-xdpi="96"
   inkscape:export-ydpi="96"
   xmlns:inkscape="http://www.inkscape.org/namespaces/inkscape"
   xmlns:sodipodi="http://sodipodi.sourceforge.net/DTD/sodipodi-0.dtd"
   xmlns="http://www.w3.org/2000/svg"
   xmlns:svg="http://www.w3.org/2000/svg">
  <defs
     id="defs1">
    <rect
       x="92.388993"
       y="267.24601"
       width="471.86593"
       height="112.85098"
       id="rect14" />
    <rect
       x="111.61086"
       y="276.85695"
       width="412.0301"
       height="78.747665"
       id="rect13" />
  </defs>
  <sodipodi:namedview
     id="namedview1"
     pagecolor="#ffffff"
     bordercolor="#000000"
     borderopacity="0.25"
     inkscape:showpageshadow="2"
     inkscape:pageopacity="0.0"
     inkscape:pagecheckerboard="0"
     inkscape:deskcolor="#d1d1d1"
     inkscape:zoom="2"
     inkscape:cx="329"
     inkscape:cy="139.75"
     inkscape:window-width="1920"
     inkscape:window-height="1009"
     inkscape:window-x="-8"
     inkscape:window-y="-8"
     inkscape:window-maximized="1"
     inkscape:current-layer="layer1"
     showgrid="false" />
  <g
     inkscape:groupmode="layer"
     id="layer1"
     inkscape:label="Vektor">
    <g
       id="g14"
       transform="matrix(0.34793161,0,0,0.3364165,-21.791186,138.6265)">
      <path
         style="opacity:1;fill:#454f5e;fill-opacity:1"
         d="m 177.14436,248.75554 223.12186,-213.267776 -7.95467,66.154866 -16.76128,11.80441 2.96856,-26.745466 z"
         id="path1"
         sodipodi:nodetypes="cccccc" />
      <path
         style="opacity:1;fill:#3fa7b5;fill-opacity:1"
         d="M 183.22783,248.93865 422.57113,80.297815 406.37205,149.8996 390.71553,156.95278 395.37929,129.483 Z"
         id="path9"
         sodipodi:nodetypes="cccccc" />
      <path
         style="opacity:1;fill:#454f5e;fill-opacity:1"
         d="m 373.1294,141.96112 -1.42497,23.73104 10.58148,-4.84563 4.74932,-26.70388 z"
         id="path10"
         sodipodi:nodetypes="ccccc" />
      <path
         style="opacity:1;fill:#a7d3dd;fill-opacity:1"
         d="m 188.86185,249.47741 240.55666,-110.85842 -37.00676,110.6392 10.09023,-74.50174 z"
         id="path11"
         sodipodi:nodetypes="ccccc" />
      <path
         style="opacity:1;fill:#3fa7b5;fill-opacity:1"
         d="m 385.83501,180.42171 -7.51556,68.60396 19.79213,-72.76922 z"
         id="path12"
         sodipodi:nodetypes="cccc" />
      <path
         style="opacity:1;fill:#454f5e;fill-opacity:1"
         d="m 370.92775,185.77391 -4.82293,63.7035 12.44488,-66.425 z"
         id="path13"
         sodipodi:nodetypes="cccc" />
    </g>
    <path
       d="m 141.24901,335.42461 h 34.53332 l -1.02666,-12.03999 h -32.38666 z m 17.08,-28.74665 9.23999,21.18666 -0.56,4.01333 7.84,16.14666 h 17.91999 l -34.43998,-69.43997 -34.34666,69.43997 h 17.82666 l 8.12,-16.79999 -0.74667,-3.45334 z m 58.44003,18.38666 -11.01333,7.93333 q 2.24,4.66666 6.25333,8.58666 4.01334,3.92 9.42667,6.25333 5.50666,2.24 11.85333,2.24 4.57333,0 8.86666,-1.4 4.38666,-1.30666 7.74666,-3.92 3.45334,-2.61333 5.41333,-6.43999 2.05334,-3.92 2.05334,-8.86667 0,-4.10666 -1.30667,-7.27999 -1.30667,-3.17334 -3.64,-5.6 -2.24,-2.42667 -5.22666,-4.10667 -2.98667,-1.77333 -6.44,-3.08 -4.57333,-1.58666 -7.84,-2.98666 -3.17333,-1.4 -4.94666,-3.08 -1.68,-1.68 -1.68,-3.92 0,-2.14666 1.77333,-3.54666 1.77333,-1.49334 5.13333,-1.49334 2.52,0 4.66667,1.02667 2.24,0.93333 4.01333,2.70667 1.86667,1.67999 3.26667,4.01333 l 12.03999,-6.72 q -1.68,-3.36 -4.85333,-6.62666 -3.17333,-3.26667 -8.02666,-5.41334 -4.76,-2.14666 -11.29333,-2.14666 -6.34667,0 -11.57333,2.24 -5.13333,2.14666 -8.21333,6.34666 -2.98667,4.2 -2.98667,9.98666 0,4.85334 1.77333,8.30667 1.77334,3.36 4.48,5.78666 2.70667,2.33334 5.69333,3.82667 3.08,1.49333 5.41334,2.33333 4.75999,1.77333 7.65333,3.17333 2.89333,1.4 4.19999,2.98667 1.30667,1.49333 1.30667,4.01333 0,2.98667 -2.24,4.76 -2.24,1.68 -5.69333,1.68 -3.26667,0 -6.25333,-1.4 -2.89333,-1.4 -5.41333,-4.01333 -2.42667,-2.61334 -4.38667,-6.16 z M 277.9157,282.6913 v 65.33331 h 16.05333 V 282.6913 Z m 72.25328,41.71999 h 17.35999 q -0.84,2.51999 -2.33333,4.75999 -1.4,2.14667 -3.45333,3.82667 -2.05334,1.58666 -4.94667,2.52 -2.89333,0.84 -6.44,0.84 -5.78666,0 -10.26666,-2.52 -4.38666,-2.61333 -7,-7.28 -2.52,-4.76 -2.52,-11.19999 0,-6.53334 2.61334,-11.01333 2.70666,-4.57334 7.18666,-7 4.57333,-2.42667 9.98666,-2.42667 5.69333,0 9.42667,2.61334 3.82666,2.51999 6.06666,6.43999 l 14,-7.27999 q -3.08,-4.57334 -7.37334,-8.02667 -4.19999,-3.54666 -9.70666,-5.50666 -5.50666,-1.96 -12.41333,-1.96 -7.74666,0 -14.37332,2.42666 -6.62667,2.42667 -11.57333,6.90667 -4.94667,4.48 -7.65333,10.82666 -2.70667,6.25333 -2.70667,14 0,7.74666 2.61333,14.18666 2.70667,6.34666 7.46667,11.01333 4.75999,4.57333 11.29333,7.09333 6.53333,2.42666 14.37332,2.42666 8.30667,0 14.74666,-2.89333 6.44,-2.98667 10.73333,-8.21333 4.29334,-5.22666 6.34667,-12.04 2.05333,-6.81333 1.58666,-14.65332 h -33.03998 z m 57.97323,-3.73334 h 49.46665 v -14.18666 h -49.46665 z m 39.47998,-37.98665 v 65.33331 h 15.77333 V 282.6913 Z m -43.86665,0 v 65.33331 h 15.77333 V 282.6913 Z m 76.8266,14.09333 h 17.91999 v 51.23998 h 15.77333 v -51.23998 h 18.01332 V 282.6913 h -51.70664 z"
       id="text14"
       style="font-weight:bold;font-size:93.3333px;font-family:Jost;-inkscape-font-specification:'Jost, Bold';text-align:center;letter-spacing:10px;white-space:pre;fill:#454f5e"
       transform="translate(19.844391,-127.77129)"
       aria-label="ASIGHT" />
  </g>
</svg>
