<?xml version="1.0" encoding="UTF-8" standalone="no"?>
<!-- Created with Inkscape (http://www.inkscape.org/) -->

<svg
   version="1.1"
   id="svg1"
   width="586"
   height="132"
   viewBox="0 0 586 132"
   sodipodi:docname="ASIGHT Wortmarke neu.svg"
   inkscape:version="1.4.3 (0d15f75, 2025-12-25)"
   xmlns:inkscape="http://www.inkscape.org/namespaces/inkscape"
   xmlns:sodipodi="http://sodipodi.sourceforge.net/DTD/sodipodi-0.dtd"
   xmlns="http://www.w3.org/2000/svg"
   xmlns:svg="http://www.w3.org/2000/svg">
  <defs
     id="defs1" />
  <sodipodi:namedview
     id="namedview1"
     pagecolor="#ffffff"
     bordercolor="#000000"
     borderopacity="0.25"
     inkscape:showpageshadow="2"
     inkscape:pageopacity="0.0"
     inkscape:pagecheckerboard="0"
     inkscape:deskcolor="#d1d1d1"
     inkscape:zoom="2.194927"
     inkscape:cx="293.40383"
     inkscape:cy="92.258193"
     inkscape:window-width="1920"
     inkscape:window-height="1111"
     inkscape:window-x="-9"
     inkscape:window-y="-9"
     inkscape:window-maximized="1"
     inkscape:current-layer="g1" />
  <g
     inkscape:groupmode="layer"
     inkscape:label="Image"
     id="g1">
    <g
       id="g2"
       transform="translate(-6.7652557,2.8993954)">
      <path
         style="fill:#b4b8c3"
         d="m 185.5,98.575493 c -0.55,-0.208038 -3.475,-1.128946 -6.5,-2.046462 -5.77806,-1.752549 -16,-7.363347 -16,-8.78236 0,-1.255755 6.37451,-9.662983 7.36053,-9.707671 0.47329,-0.02145 4.16603,1.594671 8.2061,3.591379 15.56328,7.69179 31.21796,4.874794 29.265,-5.266116 -0.57836,-3.003179 -6.00377,-5.814398 -16.81763,-8.714183 -20.09085,-5.387453 -26.02195,-10.510442 -26.00888,-22.46518 0.009,-8.362237 6.09977,-15.398272 16.24665,-18.768524 3.66274,-1.216568 7.46815,-1.539744 14.70694,-1.248996 8.87433,0.35644 10.46276,0.736771 17.40347,4.167056 4.2008,2.076148 7.63782,4.135523 7.63782,4.576387 0,0.440865 -1.57619,2.865844 -3.50264,5.388842 l -3.50264,4.58727 -5.32052,-2.435816 c -15.04356,-6.887166 -29.57348,-4.15457 -27.24474,5.123833 0.77654,3.094001 3.89655,4.635469 16.0876,7.948214 17.02477,4.626243 24.53429,9.788332 26.30289,18.080762 2.22879,10.450091 -2.39884,18.627157 -13.31995,23.536469 -3.81944,1.716936 -7.24305,2.314412 -14.5,2.530486 -5.225,0.155574 -9.95,0.112649 -10.5,-0.09539 z M 301.62437,97.950162 C 290.35463,95.126316 279.96564,86.688926 275.34863,76.610391 272.95287,71.380629 272.54588,69.202921 272.52472,61.5 c -0.0218,-7.948504 0.31634,-9.694633 2.89449,-14.945527 3.8383,-7.817419 9.65624,-13.481695 18.13451,-17.655532 C 300.29084,25.582266 300.761,25.5 312.97897,25.5 c 11.98505,0 12.79927,0.134261 19.02103,3.136462 3.575,1.725054 7.375,3.807999 8.44445,4.628766 2.14421,1.645621 1.81718,2.438441 -3.71161,8.997956 l -2.32899,2.763184 -5.82619,-3.155595 c -13.96878,-7.565817 -30.32783,-3.790599 -36.85456,8.505018 -3.3916,6.389378 -3.10736,17.58643 0.60733,23.925077 2.97312,5.073245 7.7754,8.734052 14.06105,10.718833 4.97427,1.570693 16.10637,0.80845 20.36649,-1.394544 C 329.75482,82.075429 330,81.57245 330,76.97432 V 72 h -7.5 -7.5 v -6 -6 h 14.5 14.5 v 14.485812 14.485811 l -3.86937,2.560625 C 332.85455,96.347331 326.22719,98.248107 315.5,98.596499 310,98.775125 303.75597,98.484273 301.62437,97.950162 Z M 79.252093,95.292506 C 79.668559,93.821784 96.174932,53.847261 105.38698,32 l 2.31911,-5.5 7.99301,-0.287955 c 5.6025,-0.201835 8.31092,0.09724 9.056,1 0.77343,0.937127 23.52879,53.030322 29.95654,68.578676 0.41723,1.009259 -1.38614,1.227325 -8.26983,1 L 137.63839,96.5 134.99834,90 132.35829,83.5 116.40511,83.226312 100.45192,82.952624 97.817042,89.726312 95.182162,96.5 86.963334,96.792506 c -7.497727,0.266843 -8.174294,0.135236 -7.711241,-1.5 z M 127,70.313856 C 127,68.238452 116.49395,44.107532 115.86677,44.742385 114.92288,45.697818 106,68.470034 106,69.923518 106,70.623813 109.66933,71 116.5,71 122.275,71 127,70.691235 127,70.313856 Z m 113.66667,26.019477 c -0.96928,-0.969278 -0.7893,-67.59174 0.18676,-69.13041 0.58322,-0.919412 2.98089,-1.210578 8.23468,-1 L 256.5,26.5 l 0.26279,35.25 0.2628,35.25 h -7.84613 c -4.31537,0 -8.14613,-0.3 -8.51279,-0.666667 z M 361.23716,61.79065 361.5,26.5 h 8 8 l 0.27686,14.772965 0.27687,14.772965 17.72313,-0.272965 L 413.5,55.5 l 0.27697,-14.791579 0.27697,-14.791578 7.72303,0.291578 L 429.5,26.5 v 35 35 l -7.75,0.292064 -7.75,0.292065 V 83.042064 69 l -18.25,-9.35e-4 -18.25,-9.36e-4 V 82.749065 96.5 l -8.26284,0.29065 -8.26284,0.29065 z M 468,68.540442 V 40 H 456 444 V 33.5 27 H 476.5 509 V 33.5 40 H 497.01557 485.03115 L 484.76557,68.25 484.5,96.5 476.25,96.790442 468,97.080885 Z"
         id="path8" />
      <path
         style="fill:#989dad"
         d="m 187,98.370915 c -5.79107,-1.110302 -15.03878,-4.643827 -19.41212,-7.41732 l -4.695,-2.97748 3.28216,-4.570321 c 1.80518,-2.513677 3.56099,-4.742651 3.90179,-4.953275 0.34079,-0.210624 3.50042,1.139027 7.0214,2.999224 11.8553,6.263384 25.32582,6.638505 29.89287,0.832443 4.39995,-5.593631 0.97628,-10.080332 -10.13448,-13.281191 -22.67196,-6.531483 -26.46323,-8.493178 -29.82145,-15.430349 -8.27064,-17.084858 11.13634,-32.326789 35.16485,-27.617913 7.10147,1.391679 16.67931,5.567239 17.4647,7.613921 0.76617,1.996621 -4.84701,9.562895 -6.66472,8.983693 -0.825,-0.262881 -4.65,-1.608083 -8.5,-2.989339 C 190.95283,34.702721 181,37.1237 181,45.279271 c 0,3.84241 3.15549,5.74316 15.59763,9.395432 18.76437,5.508102 25.49617,9.977901 26.98575,17.918073 2.7034,14.410369 -7.74482,24.744204 -26.08338,25.797825 -4.4,0.252797 -9.125,0.243938 -10.5,-0.01969 z m 116.32557,-0.349488 c -24.7846,-5.292065 -37.64047,-30.506092 -26.82516,-52.611783 9.16683,-18.736339 36.38641,-26.002839 57.55942,-15.365983 8.2587,4.148986 8.51539,4.771233 4.08862,9.911093 l -3.75765,4.362961 -6.60955,-3.253872 C 313.04449,33.808962 296.89977,38.374758 290.87884,51.5 c -2.21688,4.832665 -2.47823,15.12969 -0.50394,19.854846 2.10418,5.035993 7.1405,10.194517 12.38685,12.687391 5.97637,2.839755 16.68245,3.063884 22.98825,0.481253 L 330,82.782841 V 77.43523 72.087619 L 322.75,71.79381 315.5,71.5 V 66 60.5 h 14 14 l 0.27724,14.214215 0.27724,14.214216 -5.27724,3.045446 c -2.90248,1.674996 -7.52724,3.736009 -10.27724,4.58003 -6.14899,1.887228 -19.55012,2.668435 -25.17443,1.46752 z M 79.787321,96.453987 C 79.443404,96.11007 80.543735,92.60473 82.232501,88.664342 83.921266,84.723954 90.325738,69.35 96.464658,54.5 l 11.161672,-27 8.56559,-0.287164 c 6.26757,-0.210123 8.70462,0.05816 9.08383,1 0.28503,0.70794 6.86459,16.039594 14.62125,34.070341 C 147.65365,80.313925 154,95.501425 154,96.033177 154,96.574139 150.51513,97 146.08837,97 h -7.91163 l -2.74636,-7 -2.74635,-7 h -16.21887 -16.21887 l -2.156392,5.25 c -3.496896,8.513628 -3.130268,8.222068 -10.738354,8.539645 -3.816406,0.159305 -7.220307,0.0083 -7.564223,-0.335658 z m 48.046009,-26.2696 C 120.3898,51.97124 116.47461,43 115.96967,43 c -0.34876,0 -1.1202,1.4625 -1.7143,3.25 -0.59411,1.7875 -2.91961,7.973842 -5.16778,13.747427 C 106.83941,65.771012 105,70.608512 105,70.747427 105,70.886342 110.2125,71 116.58333,71 c 6.37084,0 11.43334,-0.367026 11.25,-0.815613 z M 241,61.957936 V 26.915871 l 7.75,0.292065 7.75,0.292064 0.12514,23 c 0.0688,12.65 -0.10742,28.2875 -0.39166,34.75 L 255.71667,97 H 248.35834 241 Z M 362,62 V 27 h 7.5 7.5 V 41.5 56 H 395.5 414 V 41.5 27 h 7.5 7.5 V 62.04381 97.087619 L 421.75,96.79381 414.5,96.5 414,82.5 413.5,68.5 395.25,68.227441 377,67.954883 V 82.477441 97 H 369.5 362 Z M 468.76534,68.25 468.5,39.5 456.20103,39.218828 443.90205,38.937656 444.20103,33.218828 444.5,27.5 h 32 32 l 0.29897,5.718828 0.29898,5.718828 -12.29898,0.281172 L 484.5,39.5 484.23466,68.25 483.96933,97 H 476.5 469.03067 Z"
         id="path7" />
      <path
         style="fill:#7b8296"
         d="M 186.52828,97.933564 C 177.96482,96.501878 164,90.231731 164,87.818456 164,86.911305 169.993,78 170.60307,78 c 0.14522,0 2.43144,1.343225 5.08048,2.984944 10.74313,6.657945 24.89579,7.589564 30.47903,2.006326 3.02542,-3.025425 3.45995,-4.959552 1.80778,-8.046661 -1.452,-2.713074 -4.90734,-4.284924 -17.45363,-7.939737 -6.03391,-1.757712 -12.61198,-4.03314 -14.61794,-5.056506 -12.91181,-6.587115 -14.07817,-23.778085 -2.12349,-31.29827 7.44246,-4.681743 17.16416,-6.390817 27.10077,-4.764311 7.24787,1.186393 19.1314,6.355254 19.10905,8.311676 -0.008,0.716396 -1.47068,3.018757 -3.25,5.116356 L 213.5,43.127633 207.5547,40.401096 c -8.19452,-3.758032 -18.6614,-4.404371 -23.3638,-1.442733 -2.89307,1.822101 -3.27024,2.540418 -3,5.713537 0.42474,4.987305 3.13319,6.723834 16.3091,10.456626 17.62383,4.992909 22.86533,8.388338 25.56186,16.558925 0.67441,2.043474 0.90775,5.517595 0.54725,8.14774 -1.31929,9.625288 -9.48413,16.28844 -22.21421,18.128548 -7.7524,1.120594 -7.98626,1.12012 -14.86662,-0.03017 z m 118.18676,0.08674 C 297.57202,96.72976 287.73861,91.738609 282.99671,86.996711 280.68628,84.686278 277.60434,80.25434 276.14796,77.147962 273.83707,72.218962 273.5,70.227042 273.5,61.5 c 0,-8.59705 0.34474,-10.701475 2.45723,-15 7.44661,-15.152419 26.15471,-23.699913 44.92206,-20.52432 7.93658,1.342936 19.44603,6.593432 19.8393,9.050493 0.12974,0.810605 -1.24869,3.199903 -3.06319,5.309552 l -3.29909,3.835725 -6.23812,-3.269935 c -5.48048,-2.872794 -7.17209,-3.268918 -13.92815,-3.26155 -5.42304,0.0059 -8.84075,0.557464 -11.59344,1.870946 -4.92073,2.347991 -10.40374,7.78326 -12.20817,12.101876 -1.9998,4.786196 -1.74332,16.011525 0.47723,20.887213 2.56089,5.622952 8.99945,11.085492 15.25625,12.943564 6.59765,1.959292 10.92104,1.890056 17.87809,-0.286303 l 5.5,-1.720553 0.29772,-6.218354 L 330.09543,71 h -7.59997 -7.59998 L 315.19774,65.75 315.5,60.5 h 14 14 l 0.27691,14.16121 0.27692,14.16121 -5.27692,2.995331 c -9.82964,5.579591 -23.61539,8.08993 -34.06187,6.20255 z M 80,95.869287 C 80,94.823758 84.769313,83.081311 105.53499,33 l 2.28052,-5.5 8.34224,-0.277319 8.34225,-0.27732 14.69531,34.211305 c 8.08242,18.816217 14.46836,34.578511 14.19098,35.027319 -0.83319,1.348132 -14.02402,0.969026 -15.10035,-0.433985 -0.52742,-0.6875 -1.9891,-3.848124 -3.24817,-7.023609 L 132.74855,82.952782 116.29026,83.226391 99.831965,83.5 l -2.735799,6.447563 -2.735798,6.447564 -7.180184,0.35679 C 81.943479,97.012134 80,96.773231 80,95.869287 Z M 128.0036,71.25 c 0.009,-1.892654 -11.56535,-29.078568 -12.11473,-28.454993 -0.65495,0.743386 -9.18848,22.150252 -10.32139,25.891806 -0.58823,1.942703 -0.23826,2.230915 3.13519,2.581897 C 115.85064,72.012403 128,72.000625 128.0036,71.25 Z M 241.70762,96.37429 C 241.31843,95.985097 241,80.216667 241,61.333333 V 27 h 7.51296 7.51296 L 255.76296,61.75 255.5,96.5 l -6.54238,0.290957 c -3.5983,0.160026 -6.8608,-0.02747 -7.25,-0.416667 z M 362.51108,96.177743 C 362.22998,95.896651 362,80.216667 362,61.333333 V 27 h 7.5 7.5 V 41.5 56 H 395.5 414 V 41.5 27 h 7.51296 7.51296 L 428.76296,61.75 428.5,96.5 h -7 -7 L 414.22254,82.25 413.94509,68 H 395.5 377.05491 l -0.27745,14.190317 -0.27746,14.190317 -6.73892,0.154092 c -3.70641,0.08475 -6.96891,-0.07589 -7.25,-0.356983 z M 469.50287,95.829659 C 469.23034,95.098347 468.89321,82.125 468.75368,67 L 468.5,39.5 456.5,39 444.5,38.5 V 33 27.5 h 32 32 v 5.5 5.5 l -12.23471,0.280656 -12.23472,0.280656 -0.26528,28.719344 L 483.5,96.5 l -6.75082,0.329659 c -4.94043,0.241254 -6.88369,-0.02692 -7.24631,-1 z"
         id="path6" />
      <path
         style="fill:#6e758a"
         d="M 179.94503,96.114781 C 173.29015,93.985132 164,89.07593 164,87.688933 c 0,-0.546266 1.45811,-2.892584 3.24023,-5.214041 l 3.24024,-4.220831 5.24331,2.959141 c 9.83987,5.553278 19.95789,7.098337 27.28516,4.166545 C 207.38314,83.629539 209,81.544694 209,77.654635 c 0,-4.207395 -4.74349,-7.059494 -17.64376,-10.60859 -6.52093,-1.794026 -13.48713,-4.093573 -15.48045,-5.110105 -4.37188,-2.22953 -8.66292,-7.111815 -9.4596,-10.763012 -0.32078,-1.47011 -0.73527,-3.180021 -0.92108,-3.799802 -0.60366,-2.013507 1.53384,-9.605037 3.47005,-12.324193 4.91025,-6.895812 19.00171,-10.962557 31.45935,-9.079059 7.42167,1.122097 19.58608,6.310335 19.56061,8.342788 -0.008,0.653036 -1.47068,2.878084 -3.25,4.944552 L 213.5,43.014428 208,40.27526 c -4.71625,-2.348837 -6.74256,-2.741739 -14.21976,-2.757214 -7.42556,-0.01537 -9.00557,0.278795 -10.64549,1.981954 -3.3978,3.528826 -3.514,6.056695 -0.43078,9.371028 2.23728,2.40498 5.29399,3.730906 15.29603,6.635033 14.28122,4.146603 19.95732,7.070777 22.86856,11.781268 6.76347,10.943518 1.23362,24.016355 -12.14855,28.719811 -7.35117,2.583727 -20.87939,2.634333 -28.77498,0.107641 z m 119.34101,0.485433 C 275.18169,88.775498 265.40399,61.740844 279.31031,41.368748 290.40815,25.110949 317.3355,20.557168 336.75,31.654916 c 2.3375,1.336165 4.23127,2.972922 4.20837,3.637238 -0.0229,0.664315 -1.53906,2.902258 -3.36925,4.973206 l -3.32763,3.76536 -5.58452,-2.937628 C 321.83494,37.493973 313.87793,36.35001 307.0609,37.98539 285.30937,43.203502 281.49006,72.646946 301.152,83.53773 305.82882,86.128234 307.504,86.5 314.5,86.5 c 6,0 9,-0.5 12,-2 3.93939,-1.969697 4,-2.083333 4,-7.5 V 71.5 L 323.25,71.20619 316,70.912381 v -4.902075 -4.902075 l 13.58667,-0.304115 c 7.47267,-0.167264 13.77267,-0.116616 14,0.112551 C 343.814,61.145833 344,67.310432 344,74.615775 v 13.282442 l -3.25,2.388172 c -7.21236,5.299798 -13.47219,7.098681 -25.75,7.399754 -7.72088,0.189329 -12.88479,-0.167528 -15.71396,-1.085929 z M 80,95.503001 c 0,-0.27335 4.904754,-12.31085 10.899452,-26.75 C 96.894151,54.31385 103.23614,39.0125 104.99277,34.75 L 108.18664,27 h 7.881 c 7.59079,0 7.93265,0.101267 9.28351,2.75 1.08958,2.136428 18.39786,42.088558 27.2932,63 l 1.38249,3.25 h -7.89728 -7.89727 l -2.27964,-5.75 c -1.25381,-3.1625 -2.71117,-6.3125 -3.23859,-7 C 132.02048,82.345909 127.5061,82 116.40061,82 99.016893,82 100.08946,81.501844 96.484753,91.25 L 94.728284,96 H 87.364142 C 83.313864,96 80,95.77635 80,95.503001 Z M 128,70.858472 C 128,69.293778 116.65639,41.995943 116.0147,42.016445 115.36493,42.037205 105,69.086012 105,70.760917 105,71.67453 108.02071,72 116.5,72 124.45052,72 128,71.647667 128,70.858472 Z M 241,61.5 V 27 h 7.5 7.5 V 61.5 96 h -7.5 -7.5 z m 121,0 V 27 h 7.47327 7.47326 L 377.22327,41.75 377.5,56.5 h 18 18 L 413.77673,41.75 414.05347,27 H 421.52673 429 V 61.5 96 H 421.5 414 V 82 68 H 395.5 377 v 14 14 h -7.5 -7.5 z m 107,6 V 39 H 457 445 V 33.5 28 h 32.125 32.125 l -0.625,3.125 C 508.28125,32.84375 508,35.31875 508,36.625 508,38.993056 507.96491,39 496,39 H 484 V 67.5 96 h -7.5 -7.5 z"
         id="path5" />
      <path
         style="fill:#4f5770"
         d="m 181.10463,96.479238 c -5.74547,-1.610809 -14.4269,-5.957693 -16.22466,-8.123867 -0.81723,-0.984705 -0.29787,-2.302528 2.10127,-5.331686 C 168.73399,80.810658 170.40498,79 170.69456,79 c 0.28957,0 3.75989,1.598033 7.71183,3.551184 11.22402,5.547211 23.19235,5.940987 28.20534,0.927997 5.4836,-5.483607 1.46611,-11.90805 -9.35011,-14.951934 C 180.01575,63.673944 176.47953,62.4056 172.83656,59.766642 168.1635,56.381501 166,51.861111 166,45.482459 c 0,-5.259759 1.61708,-8.864386 5.66072,-12.618297 5.26922,-4.891671 9.1827,-6.223547 19.61442,-6.675391 8.21841,-0.355976 10.90881,-0.05888 16.89376,1.865539 3.91525,1.258919 8.20022,3.224211 9.52217,4.367317 l 2.40354,2.078373 -3.08159,4.178981 -3.08159,4.178981 -5.39494,-2.469889 C 192.81651,33.191229 177.08063,37.19127 180.96111,47.3977 182.14827,50.52019 186.61802,52.639993 199,55.952757 217.74825,60.968798 223.93276,66.853948 223.21958,79 c -0.41324,7.037731 -3.92601,11.795273 -11.59984,15.710322 -4.29973,2.193642 -6.72141,2.66562 -15.11974,2.946784 -6.80824,0.22793 -11.72207,-0.148017 -15.39537,-1.177868 z M 298.83637,96.142839 C 288.01361,92.563758 280.9146,86.375593 276.30226,76.5 273.8846,71.323475 273.5,69.264788 273.5,61.5 c 0,-7.902329 0.35296,-9.718853 2.894,-14.894003 3.79093,-7.720708 8.8025,-12.592814 17.21155,-16.732574 C 300.28649,26.584407 300.77254,26.5 313.03084,26.5 c 12.54519,0 12.58985,0.0084 20.27102,3.804626 C 337.53584,32.39717 341,34.519012 341,35.01983 c 0,0.500817 -1.44472,2.613736 -3.2105,4.695374 -1.76577,2.081638 -3.26405,3.89557 -3.3295,4.030961 -0.0654,0.135391 -2.78322,-1.206517 -6.0395,-2.982017 -5.34624,-2.915062 -6.74497,-3.229458 -14.4205,-3.241327 -9.39415,-0.01453 -14.1476,1.757997 -19.13584,7.135596 -12.23786,13.193111 -6.80669,35.214179 10.06738,40.818843 6.53958,2.172103 15.97141,1.727695 21.56846,-1.016259 3.94412,-1.933606 4,-2.037834 4,-7.461001 V 71.5 L 323.25,71.20619 316,70.912381 V 65.95619 61 h 13.5 13.5 v 14.014698 14.014699 l -3.25,1.993115 c -7.24471,4.442938 -13.9584,6.23904 -24.75,6.621328 -8.32076,0.294759 -11.67547,-0.01677 -16.16363,-1.501001 z M 80.27493,94.75 C 80.734646,93.574638 84.71964,84.023866 96.025859,57 98.672106,50.675 102.503,41.320176 104.53897,36.211502 l 3.70174,-9.288497 8.08507,0.288497 L 124.41084,27.5 136.25437,55 c 6.51394,15.125 13.15145,30.5375 14.75002,34.25 l 2.90649,6.75 h -7.83351 -7.83352 l -2.23232,-5.969178 c -1.22778,-3.283048 -2.80534,-6.44474 -3.5057,-7.025983 -0.80857,-0.671052 -7.02343,-0.956066 -17.02617,-0.780822 L 99.726867,82.5 97.12118,89.25 94.515493,96 H 87.150758 C 81.664885,96 79.910751,95.681105 80.27493,94.75 Z M 128,70.745398 c 0,-1.296779 -10.63434,-27.713069 -11.50815,-28.586877 -0.27052,-0.27052 -0.6521,-0.304354 -0.84796,-0.07519 -1.0648,1.245863 -11.31384,28.535839 -10.95385,29.166667 0.2354,0.4125 5.57644,0.75 11.86898,0.75 C 125.06752,72 128,71.678428 128,70.745398 Z M 241.23687,61.75 241.5,27.5 248.75,27.20619 256,26.912381 V 61.45619 96 h -7.51313 -7.51313 z M 362,61.5 V 27 h 7.5 7.5 V 42.022065 57.044131 L 395.75,56.772065 414.5,56.5 414.77673,41.75 415.05347,27 H 422.02673 429 V 61.54381 96.087619 L 421.75,95.79381 414.5,95.5 l 0.32818,-9.485795 c 0.18051,-5.217187 0.0404,-11.404687 -0.31127,-13.75 L 413.87745,68 H 395.43873 377 v 14 14 h -7.5 -7.5 z m 107,6 V 39 H 457 445 V 33.5 28 H 476.5 508 V 33.5 39 H 496 484 V 67.5 96 h -7.5 -7.5 z"
         id="path4" />
      <path
         style="fill:#232d4d"
         d="m 182.7601,96.508879 c -5.49419,-1.395517 -11.70756,-4.129769 -16.49619,-7.259306 l -2.23609,-1.461362 3.17116,-4.415751 c 1.74413,-2.428663 3.42537,-4.29351 3.73608,-4.144105 0.31072,0.149405 3.6454,1.817069 7.41041,3.705921 5.75087,2.885134 8.14938,3.494528 15,3.811082 6.92182,0.319844 8.6496,0.06517 11.42946,-1.684736 5.92492,-3.729699 6.24851,-10.033484 0.70159,-13.667962 -1.43701,-0.941566 -7.41959,-2.999137 -13.29463,-4.572379 -15.23908,-4.080785 -21.12338,-7.224963 -23.93189,-12.787617 -2.5813,-5.11263 -2.86847,-10.312111 -0.83732,-15.16054 1.72749,-4.123584 4.68067,-6.911889 10.58732,-9.996253 3.94532,-2.060187 5.85588,-2.345404 15.5,-2.313912 11.43169,0.03733 19.33255,2.052612 24.52215,6.254892 l 2.10414,1.703832 -3.31314,3.760389 -3.31315,3.760389 -6,-2.443107 c -7.73119,-3.148021 -12.45408,-3.982287 -17.91134,-3.16392 -8.4015,1.259883 -12.43981,8.578209 -7.33866,13.299301 1.2375,1.1453 6.3,3.280769 11.25,4.745486 20.38632,6.032364 25.89047,9.097556 28.43638,15.835879 2.73719,7.244565 0.0284,17.496335 -5.66374,21.435001 -7.80756,5.402448 -22.66963,7.512861 -33.51254,4.758778 z m 118.49057,-0.05402 c -19.5204,-5.25639 -30.61246,-21.838734 -27.2156,-40.686621 2.19981,-12.205915 8.72791,-20.390491 20.84155,-26.130029 6.25664,-2.964444 7.26014,-3.135707 18.12338,-3.093062 12.39769,0.04867 19.42302,1.912267 25.24786,6.697451 l 2.74785,2.257404 -3.37567,3.97543 -3.37567,3.975431 -4.87218,-2.61821 c -19.33412,-10.389749 -41.26944,0.247009 -41.35023,20.051329 -0.0307,7.531912 1.71423,12.534733 6.11638,17.535845 5.57887,6.337925 12.20222,8.883719 21.77585,8.369904 4.17219,-0.223921 9.27331,-1.145252 11.33581,-2.047403 3.73946,-1.635664 3.75,-1.657273 3.75,-7.691299 V 71 h -7.5 -7.5 v -5 -5 h 13.5 13.5 v 14.04929 14.049291 l -7.25,3.435517 c -11.59313,5.49357 -23.59366,6.8574 -34.49933,3.920759 z M 80.31172,95.295569 c 0.547208,-0.895616 21.05774,-50.162348 25.17539,-60.471834 l 2.66653,-6.676265 7.87947,-0.323735 c 7.573,-0.311144 7.92422,-0.226503 9.03027,2.176265 0.63295,1.375 5.09967,11.725 9.92605,23 4.82637,11.275 10.56581,24.55 12.75431,29.5 6.45942,14.61009 6.61846,13.5 -1.9341,13.5 h -7.32513 l -2.60683,-6.75 -2.60683,-6.75 H 116.41692 99.562988 l -2.708595,6.5 -2.708595,6.5 -7.160079,0.295569 c -3.938044,0.162563 -6.941343,-0.06244 -6.673999,-0.5 z M 128.55429,70.25 C 124.7626,60.191584 116.60171,41 116.11623,41 c -0.60809,0 -12.14019,28.772475 -12.1243,30.25 0.004,0.4125 5.68121,0.75 12.61506,0.75 11.5913,0 12.55384,-0.14099 11.9473,-1.75 z M 242,61.45431 V 26.90862 l 6.75,0.29569 6.75,0.29569 0.26313,34.25 0.26313,34.25 H 249.01313 242 Z M 362.23687,61.75 362.5,27.5 l 6.72301,-0.295075 6.72301,-0.295074 0.27699,14.795074 L 376.5,56.5 395.75,56.771593 415,57.043186 V 41.975903 26.90862 l 6.75,0.29569 6.75,0.29569 v 34 34 l -6.72227,0.295058 -6.72227,0.295058 L 414.77773,81.795058 414.5,67.5 h -19 -19 L 376.22254,81.75 375.94509,96 h -6.98567 -6.98568 z m 107.4298,33.583333 C 469.3,94.966667 469,82.141667 469,66.833333 V 39 H 457 445 V 33.5 28 h 31.5 31.5 l -3.4e-4,5.25 -3.4e-4,5.25 -11.74966,0.346062 C 489.78735,39.036396 484.1625,39.400454 483.75,39.655079 483.3375,39.909704 483,52.691476 483,68.059017 V 96 h -6.33333 c -3.48334,0 -6.63334,-0.3 -7,-0.666667 z"
         id="path3" />
      <path
         style="fill:#1a2545"
         d="m 182.5,95.992756 c -1.2867,-0.557574 -0.21675,-0.660588 3,-0.288837 2.75,0.31781 5.1875,0.739441 5.41667,0.936959 0.86735,0.747569 -6.50615,0.179775 -8.41667,-0.648122 z m 18.5,-0.0095 c 3.025,-0.414959 6.4,-1.037742 7.5,-1.383963 1.1,-0.346221 0.65,0.032 -1,0.840484 -1.65,0.808487 -5.025,1.43127 -7.5,1.383963 l -4.5,-0.08601 z m 103.25,0.327379 c 0.9625,-0.251527 2.5375,-0.251527 3.5,0 0.9625,0.251528 0.175,0.457323 -1.75,0.457323 -1.925,0 -2.7125,-0.205795 -1.75,-0.457323 z m 14.51166,-0.01794 c 1.24391,-0.239193 3.04391,-0.230112 4,0.02018 0.95609,0.250292 -0.0617,0.445996 -2.26166,0.434897 -2.2,-0.0111 -2.98225,-0.215885 -1.73834,-0.455077 z M 81.035435,94.549199 c 0.04741,-1.403766 2.888119,-6.326279 2.913817,-5.049199 0.01107,0.55 -0.410887,1.675 -0.937676,2.5 -0.763179,1.195208 -0.302879,1.611354 2.265313,2.048017 L 88.5,94.596034 84.75,95.097216 c -2.279253,0.304619 -3.736102,0.08969 -3.714565,-0.548017 z M 93.030626,95.5 c 0,-0.55 0.436218,-1.675 0.969374,-2.5 0.533156,-0.825 0.969374,-1.05 0.969374,-0.5 0,0.55 -0.436218,1.675 -0.969374,2.5 -0.533156,0.825 -0.969374,1.05 -0.969374,0.5 z m 44.527954,-3.014038 c -2.15886,-5.16689 -1.87359,-5.750619 0.55792,-1.141597 1.11546,2.114401 1.79693,4.075539 1.51438,4.358085 -0.28254,0.282547 -1.21508,-1.164873 -2.0723,-3.216488 z M 148.5,94.924347 c -3.79088,-0.60705 -3.83009,-0.647955 -0.75,-0.782442 1.7875,-0.07805 3.25,-0.310911 3.25,-0.517475 0,-0.206563 -1.14406,-2.9625 -2.54236,-6.124303 -1.3983,-3.161804 -2.36776,-5.923345 -2.15434,-6.136758 0.21341,-0.213414 1.81264,2.837356 3.55384,6.779488 1.7412,3.942132 3.04816,7.224778 2.90434,7.294769 C 152.61767,95.507617 150.7,95.276641 148.5,94.924347 Z M 242,61.757206 V 28 h 6.5 6.5 L 254.76376,62.25 254.52751,96.5 254.25045,62.75 253.9734,29 H 248.4867 243 v 32.442502 32.442502 l 4.25,0.322069 4.25,0.322069 -4.75,0.492635 -4.75,0.492635 z m 52.25,31.77903 C 291.3625,92.191911 289,90.834751 289,90.520325 c 0,-0.314427 1.42021,0.162736 3.15603,1.060362 1.73582,0.897626 4.77332,2.227475 6.75,2.955218 1.97668,0.727744 2.91897,1.350483 2.09397,1.383864 -0.825,0.03338 -3.8625,-1.039209 -6.75,-2.383533 z m 34.05081,1.013587 C 338.6181,90.531525 344.41229,85.97049 340.75,84.750142 340.0625,84.521053 339.44361,83.246053 339.3747,81.916808 339.30578,80.587564 338.99214,75.675 338.67771,71 l -0.57168,-8.5 -10.67345,-0.285053 c -9.48841,-0.253405 -10.60457,-0.10554 -10.05302,1.331787 0.34124,0.889263 0.62044,2.030037 0.62044,2.535053 0,0.505017 1.0125,0.925104 2.25,0.933526 1.77375,0.01207 1.93932,0.2118 0.78224,0.943599 -1.02411,0.647699 0.33607,1.039312 4.5,1.295602 5.61637,0.345689 5.51144,0.37845 -1.78224,0.556402 L 316,70 V 65.5 61 h 13.5 13.5 v 13.850386 13.850387 l -6.25,3.115691 c -3.4375,1.713631 -7.6,3.362737 -9.25,3.664681 -2.52855,0.462716 -2.4027,0.316359 0.80081,-0.931322 z M 363,61.75 V 28 h 6.5 6.5 L 375.78065,42.25 375.56131,56.5 375.25243,42.75 374.94356,29 H 369.47178 364 V 61.5 94 h 5.47097 5.47098 l 0.31065,-13.25 0.31066,-13.25 0.21837,14 0.21837,14 h -6.5 -6.5 z m 52.21837,19.75 0.21837,-14 0.31066,13.25 0.31065,13.25 H 421.52903 427 V 61.55226 29.104519 l -5.25,-0.367277 -5.25,-0.367277 5.75,-0.184983 L 428,28 V 61.75 95.5 h -6.5 -6.5 z m 55.01379,-14.5 0.23489,-28.5 0.2822,27.698286 0.28221,27.698286 5.23427,0.312957 5.23427,0.312956 -5.75136,0.488758 L 469.99727,95.5 Z m 12.20923,0.5 c 4.7e-4,-15.95 0.13854,-22.334972 0.30682,-14.188826 0.16828,8.146146 0.16789,21.196146 -8.6e-4,29 C 482.57859,90.115028 482.44091,83.45 482.44139,67.5 Z M 172,92 c -1.925,-1.053893 -3.05,-1.916169 -2.5,-1.916169 0.55,0 2.575,0.862276 4.5,1.916169 1.925,1.053893 3.05,1.916169 2.5,1.916169 -0.55,0 -2.575,-0.862276 -4.5,-1.916169 z m 41.61144,0.09522 c 4.65617,-2.839251 7.34876,-7.315288 8.29574,-13.7905 0.51715,-3.536065 0.89659,-4.583381 0.97088,-2.679725 0.23266,5.96249 -1.17884,9.653798 -5.36018,14.01768 -2.29627,2.396526 -4.81468,4.355638 -5.59646,4.353582 -0.78178,-0.0021 -0.0213,-0.857523 1.69002,-1.901037 z M 373.27236,89 c 0,-2.475 0.19502,-3.4875 0.43337,-2.25 0.23836,1.2375 0.23836,3.2625 0,4.5 -0.23835,1.2375 -0.43337,0.225 -0.43337,-2.25 z M 95.030626,90.5 c 0,-0.55 0.436218,-1.675 0.969374,-2.5 0.533156,-0.825 0.969374,-1.05 0.969374,-0.5 0,0.55 -0.436218,1.675 -0.969374,2.5 -0.533156,0.825 -0.969374,1.05 -0.969374,0.5 z M 283.45295,85.75 279.5,81.5 l 4.25,3.952948 c 2.3375,2.174121 4.25,4.086621 4.25,4.25 0,0.756577 -0.87085,-4.9e-4 -4.54705,-3.952948 z m -89.18392,2.557009 c 0.97297,-0.253543 2.32297,-0.236869 3,0.03705 0.67703,0.273923 -0.11903,0.481368 -1.76903,0.460988 -1.65,-0.02038 -2.20394,-0.244498 -1.23097,-0.498042 z m 119,0 c 0.97297,-0.253543 2.32297,-0.236869 3,0.03705 0.67703,0.273923 -0.11903,0.481368 -1.76903,0.460988 -1.65,-0.02038 -2.20394,-0.244498 -1.23097,-0.498042 z M 187.75,87.337719 c 0.6875,-0.277412 1.8125,-0.277412 2.5,0 0.6875,0.277413 0.125,0.504386 -1.25,0.504386 -1.375,0 -1.9375,-0.226973 -1.25,-0.504386 z m 12.0625,-0.02083 c 0.72187,-0.288871 1.58437,-0.253344 1.91667,0.07895 0.33229,0.332292 -0.25834,0.568641 -1.3125,0.52522 -1.16495,-0.04798 -1.4019,-0.284941 -0.60417,-0.604167 z m 108,0 c 0.72187,-0.288871 1.58438,-0.253344 1.91667,0.07895 0.33229,0.332292 -0.25834,0.568641 -1.3125,0.52522 -1.16495,-0.04798 -1.4019,-0.284941 -0.60417,-0.604167 z m 15.14763,-0.840323 c 2.45306,-0.764305 4.61353,-1.236231 4.80104,-1.048725 0.51161,0.51161 -5.81964,2.582191 -7.66039,2.505266 -0.88043,-0.03679 0.40628,-0.692236 2.85935,-1.456541 z M 182,86 c -1.82797,-1.181322 -0.24909,-1.181322 2.5,0 1.31874,0.566682 1.48906,0.878155 0.5,0.914402 -0.825,0.03024 -2.175,-0.381246 -3,-0.914402 z m 21,0.606989 c 0,-0.216156 0.69837,-0.661002 1.55194,-0.988546 0.88992,-0.341496 1.29132,-0.173849 0.94098,0.393011 C 204.90566,86.961658 203,87.416902 203,86.606989 Z m 94.2169,-3.564826 c -3.66853,-2.657474 -9.23161,-10.288381 -9.20752,-12.630021 0.005,-0.501678 1.37831,1.474948 3.05144,4.392502 1.99444,3.477838 4.64147,6.318962 7.6864,8.25 C 301.30161,84.67459 302.92098,86 302.34582,86 c -0.57516,0 -2.88317,-1.331027 -5.12892,-2.957837 z M 172.5,81 c -1.65,-1.092752 -2.55,-1.979781 -2,-1.971175 1.00265,0.01569 6.43974,3.912943 5.5,3.94235 -0.275,0.0086 -1.85,-0.878423 -3.5,-1.971175 z m 158.82007,-4 c 0,-3.575 0.1815,-5.0375 0.40333,-3.25 0.22182,1.7875 0.22182,4.7125 0,6.5 -0.22183,1.7875 -0.40333,0.325 -0.40333,-3.25 z m -222.08162,3.811054 c 4.22699,-0.585468 8.32675,-0.577745 11,0.02072 3.58756,0.803154 2.52184,0.950765 -6.73845,0.933322 -10.99118,-0.0207 -10.9946,-0.02147 -4.26155,-0.954042 z M 87.030626,80.5 c 0,-0.55 0.436218,-1.675 0.969374,-2.5 0.533156,-0.825 0.969374,-1.05 0.969374,-0.5 0,0.55 -0.436218,1.675 -0.969374,2.5 -0.533156,0.825 -0.969374,1.05 -0.969374,0.5 z M 277.45194,77.90707 c -0.87968,-1.701112 -1.42188,-3.270461 -1.2049,-3.487443 0.21698,-0.216982 1.14288,1.174837 2.05756,3.09293 2.05658,4.312699 1.34401,4.642396 -0.85266,0.394513 z m -133.2895,-0.449897 c -1.67549,-3.677296 -1.35583,-4.461793 0.45586,-1.118765 0.84602,1.561124 1.3511,3.025526 1.1224,3.254226 -0.2287,0.2287 -0.93892,-0.732257 -1.57826,-2.135461 z m 65.91651,0.959494 c 0.048,-1.164943 0.28494,-1.4019 0.60416,-0.604167 0.28887,0.721875 0.25335,1.584375 -0.0789,1.916667 -0.3323,0.332291 -0.56864,-0.258334 -0.52522,-1.3125 z M 109.75,72.259603 c 3.4375,-0.195271 9.0625,-0.195271 12.5,0 3.4375,0.195271 0.625,0.355038 -6.25,0.355038 -6.875,0 -9.6875,-0.159767 -6.25,-0.355038 z m 164.89066,-1.46994 C 274.30332,69.530348 274.09396,65.125 274.17541,61 l 0.14811,-7.5 0.66112,9.5 c 0.70167,10.082597 0.64062,11.465225 -0.34398,7.789663 z M 91.070871,70.5 c 0,-0.55 0.643108,-2.125 1.429129,-3.5 0.786021,-1.375 1.429129,-2.05 1.429129,-1.5 0,0.55 -0.643108,2.125 -1.429129,3.5 -0.786021,1.375 -1.429129,2.05 -1.429129,1.5 z M 103,70.704179 c 0,-1.280208 4.20882,-11.828694 4.57394,-11.463576 0.20823,0.208233 -0.55039,2.826784 -1.68583,5.819001 C 103.90805,70.277686 103,72.052386 103,70.704179 Z m 37.16244,-2.247006 c -1.67549,-3.677296 -1.35583,-4.461793 0.45586,-1.118765 0.84602,1.561124 1.3511,3.025526 1.1224,3.254226 -0.2287,0.2287 -0.93892,-0.732257 -1.57826,-2.135461 z m 77.40708,-2.384605 c -3.05745,-3.1913 -9.39629,-6.244744 -16.87128,-8.126968 -2.62617,-0.661277 -4.56598,-1.411191 -4.3107,-1.666476 0.80766,-0.807654 11.92001,2.793394 16.84556,5.458937 2.6032,1.408768 5.42607,3.619018 6.27305,4.911668 2.05884,3.142185 1.45405,2.961945 -1.93663,-0.577161 z M 287.15789,67 c 0,-1.375 0.22698,-1.9375 0.50439,-1.25 0.27741,0.6875 0.27741,1.8125 0,2.5 -0.27741,0.6875 -0.50439,0.125 -0.50439,-1.25 z m 99.14405,-0.746128 c 5.39107,-0.180152 13.94107,-0.179366 19,0.0017 5.05893,0.181113 0.64806,0.32851 -9.80194,0.327549 -10.45,-9.61e-4 -14.58913,-0.149144 -9.19806,-0.329296 z M 94.030626,63.5 c 0,-0.55 0.436218,-1.675 0.969374,-2.5 0.533156,-0.825 0.969374,-1.05 0.969374,-0.5 0,0.55 -0.436218,1.675 -0.969374,2.5 -0.533156,0.825 -0.969374,1.05 -0.969374,0.5 z m 43.592914,-1.038659 c -0.96498,-2.514694 -0.68031,-3.163555 0.49853,-1.136338 0.58369,1.003751 0.8506,2.035659 0.59313,2.293128 -0.25747,0.257469 -0.74872,-0.263087 -1.09166,-1.15679 z M 177.5,61.631966 c -2.75,-1.291673 -5.9,-3.39542 -7,-4.674993 -1.74394,-2.028631 -1.52725,-1.973185 1.69246,0.43307 2.03086,1.517762 5.85586,3.604856 8.5,4.637987 2.64415,1.033132 4.13254,1.895074 3.30754,1.915427 -0.825,0.02035 -3.75,-1.019818 -6.5,-2.311491 z m -41.87646,-4.170625 c -0.96498,-2.514694 -0.68031,-3.163555 0.49853,-1.136338 0.58369,1.003751 0.8506,2.035659 0.59313,2.293128 -0.25747,0.257469 -0.74872,-0.263087 -1.09166,-1.15679 z m 151.87154,-1.875034 c 0.23777,-2.152531 0.91087,-4.39226 1.49579,-4.977174 0.7513,-0.751307 0.77898,-0.189563 0.0943,1.913693 -0.53307,1.637446 -1.20618,3.877174 -1.4958,4.977174 -0.28963,1.1 -0.33206,0.238838 -0.0943,-1.913693 z m 98.80686,1.667565 c 5.39107,-0.180152 13.94107,-0.179366 19,0.0017 5.05893,0.181113 0.64806,0.32851 -9.80194,0.327549 -10.45,-9.61e-4 -14.58913,-0.149144 -9.19806,-0.329296 z M 192.8125,55.316886 c 0.72187,-0.288871 1.58437,-0.253344 1.91667,0.07895 0.33229,0.332292 -0.25834,0.568641 -1.3125,0.52522 -1.16495,-0.04798 -1.4019,-0.284941 -0.60417,-0.604167 z M 415.39739,42 c 0,-7.975 0.1553,-11.2375 0.34512,-7.25 0.18981,3.9875 0.18981,10.5125 0,14.5 -0.18982,3.9875 -0.34512,0.725 -0.34512,-7.25 z M 184.44113,52.444834 C 182.61082,50.978456 182.64273,50.957643 185,52.080288 188.06103,53.5381 188.62834,54 187.3578,54 c -0.53655,0 -1.84905,-0.699825 -2.91667,-1.555166 z M 111.03063,49.5 c 0,-0.55 0.43621,-1.675 0.96937,-2.5 0.53316,-0.825 0.96937,-1.05 0.96937,-0.5 0,0.55 -0.43621,1.675 -0.96937,2.5 -0.53316,0.825 -0.96937,1.05 -0.96937,0.5 z m 20.59291,-1.038659 c -0.96498,-2.514694 -0.68031,-3.163555 0.49853,-1.136338 0.58369,1.003751 0.8506,2.035659 0.59313,2.293128 -0.25747,0.257469 -0.74872,-0.263087 -1.09166,-1.15679 z m -12,-1 c -0.96498,-2.514694 -0.68031,-3.163555 0.49853,-1.136338 0.58369,1.003751 0.8506,2.035659 0.59313,2.293128 -0.25747,0.257469 -0.74872,-0.263087 -1.09166,-1.15679 z M 166.15789,46 c 0,-1.375 0.22698,-1.9375 0.50439,-1.25 0.27741,0.6875 0.27741,1.8125 0,2.5 -0.27741,0.6875 -0.50439,0.125 -0.50439,-1.25 z m 13.00215,-1.075686 c -0.12372,-2.764212 0.46405,-4.125865 2.58996,-6 L 184.5,36.5 182.32453,39 c -1.1965,1.375 -2.36199,4.075 -2.58996,6 l -0.4145,3.5 z m 116.17025,-2.294069 c 5.15301,-4.907812 12.05505,-7.705552 18.60121,-7.539995 2.53219,0.06404 1.51071,0.463928 -3.51741,1.376999 -8.10631,1.472046 -9.98493,2.334357 -15.75256,7.230634 -3.23306,2.744614 -3.08385,2.506414 0.66876,-1.067638 z M 127.13333,37.866667 c -1.18409,-2.849242 -1.98789,-5.34544 -1.78622,-5.547107 0.20166,-0.201666 1.33547,1.964532 2.51956,4.813773 1.18409,2.849242 1.98789,5.34544 1.78622,5.547107 -0.20166,0.201666 -1.33547,-1.964532 -2.51956,-4.813773 z M 103.03063,41.5 c 0,-0.55 0.43621,-1.675 0.96937,-2.5 0.53316,-0.825 0.96937,-1.05 0.96937,-0.5 0,0.55 -0.43621,1.675 -0.96937,2.5 -0.53316,0.825 -0.96937,1.05 -0.96937,0.5 z m 64.04832,-0.55887 c -0.0434,-0.857379 0.62087,-2.432379 1.47622,-3.5 1.53028,-1.910069 1.54044,-1.909127 0.63512,0.05887 -0.50602,1.1 -1.17032,2.675 -1.47622,3.5 -0.48044,1.295744 -0.56693,1.287727 -0.63512,-0.05887 z M 213.57977,41 c 0.41149,-0.825 1.59237,-2.719732 2.62417,-4.210515 l 1.87602,-2.710516 -4.78998,-2.492923 c -5.93249,-3.087536 -5.00184,-3.391739 1.18327,-0.38678 2.48971,1.209596 4.51464,2.672096 4.49985,3.25 C 218.9583,35.02717 217.57041,37.075 215.8889,39 c -1.68151,1.925 -2.72062,2.825 -2.30913,2 z M 207,39 c -1.925,-1.053893 -3.21746,-1.935031 -2.87212,-1.958084 C 205.16277,36.972829 212,39.987959 212,40.51342 212,41.385568 210.5628,40.95055 207,39 Z m 74.91119,-0.336541 C 283.3731,36.843488 289,32.557979 289,33.264541 c 0,0.220402 -1.9125,1.920607 -4.25,3.778234 -2.3375,1.857628 -3.61497,2.586935 -2.83881,1.620684 z M 327,39 c -0.90129,-0.58246 -1.02463,-0.975486 -0.30902,-0.984687 0.65504,-0.0084 1.4691,0.434687 1.80902,0.984687 0.7673,1.241525 0.42112,1.241525 -1.5,0 z m 10.37832,-1.108857 c 2.05698,-3.219678 1.3037,-4.011757 -7.10279,-7.468666 C 327.09899,29.116224 325.175,28.041186 326,28.033504 c 1.73413,-0.01615 10.64672,4.092484 13.30333,6.132726 1.70736,1.311223 1.65976,1.516632 -0.89421,3.859352 L 335.71158,40.5 Z M 445,33 v -5 h 31.5 31.5 v 5 5 L 495.75,37.784967 483.5,37.569935 495.25,37.253232 507,36.936529 v -3.879447 -3.879447 l -30.25,0.25897 c -16.6375,0.142434 -30.1375,0.552466 -30,0.911183 0.1375,0.358716 0.25,1.987474 0.25,3.619461 v 2.967249 l 11.25,0.318995 11.25,0.318995 -12.25,0.213756 L 445,38 Z m -339.96937,3.5 c 0,-0.55 0.43621,-1.675 0.96937,-2.5 0.53316,-0.825 0.96937,-1.05 0.96937,-0.5 0,0.55 -0.43621,1.675 -0.96937,2.5 -0.53316,0.825 -0.96937,1.05 -0.96937,0.5 z m 95.78187,-0.183114 c 0.72187,-0.288871 1.58437,-0.253344 1.91667,0.07895 0.33229,0.332292 -0.25834,0.568641 -1.3125,0.52522 -1.16495,-0.04798 -1.4019,-0.284941 -0.60417,-0.604167 z m 117.9375,0.02083 c 0.6875,-0.277412 1.8125,-0.277412 2.5,0 0.6875,0.277413 0.125,0.504386 -1.25,0.504386 -1.375,0 -1.9375,-0.226973 -1.25,-0.504386 z m -127.98209,-1.06245 c 1.79735,-0.222562 4.49735,-0.217969 6,0.0102 1.50265,0.228174 0.0321,0.41027 -3.26791,0.404657 -3.3,-0.0056 -4.52944,-0.192301 -2.73209,-0.414862 z m 99.63042,-3.110763 c 0.78677,-1.273025 11.03458,-5.184671 13.38918,-5.110729 0.94187,0.02958 -0.76251,0.849506 -3.78751,1.822063 -3.025,0.972556 -6.5668,2.343252 -7.87068,3.045991 -1.30387,0.702738 -2.08282,0.811942 -1.73099,0.242675 z M 114.75,28.337719 c 0.6875,-0.277412 1.8125,-0.277412 2.5,0 0.6875,0.277413 0.125,0.504386 -1.25,0.504386 -1.375,0 -1.9375,-0.226973 -1.25,-0.504386 z m 5.51903,-0.03071 c 0.97297,-0.253543 2.32297,-0.236869 3,0.03705 0.67703,0.273923 -0.11903,0.481368 -1.76903,0.460988 -1.65,-0.02038 -2.20394,-0.244498 -1.23097,-0.498042 z m 63.54347,-0.990123 c 0.72187,-0.288871 1.58437,-0.253344 1.91667,0.07895 0.33229,0.332292 -0.25834,0.568641 -1.3125,0.52522 -1.16495,-0.04798 -1.4019,-0.284941 -0.60417,-0.604167 z m 17.9375,0.02083 c 0.6875,-0.277412 1.8125,-0.277412 2.5,0 0.6875,0.277413 0.125,0.504386 -1.25,0.504386 -1.375,0 -1.9375,-0.226973 -1.25,-0.504386 z m 120.0625,-0.02083 c 0.72187,-0.288871 1.58438,-0.253344 1.91667,0.07895 0.33229,0.332292 -0.25834,0.568641 -1.3125,0.52522 -1.16495,-0.04798 -1.4019,-0.284941 -0.60417,-0.604167 z M 191.76166,26.292739 c 1.24391,-0.239193 3.04391,-0.230112 4,0.02018 0.95609,0.250292 -0.0617,0.445996 -2.26166,0.434897 -2.2,-0.0111 -2.98225,-0.215885 -1.73834,-0.455078 z m 118.98834,0.0015 c 1.2375,-0.238353 3.2625,-0.238353 4.5,0 1.2375,0.238353 0.225,0.433369 -2.25,0.433369 -2.475,0 -3.4875,-0.195016 -2.25,-0.433369 z"
         id="path2" />
    </g>
  </g>
</svg>
