<?xml version="1.0" encoding="UTF-8" standalone="no"?>
<!-- Created with Inkscape (http://www.inkscape.org/) -->

<svg
   version="1.1"
   id="svg1"
   width="362"
   height="292"
   viewBox="0 0 362 292"
   sodipodi:docname="ASIGHT Logo.svg"
   inkscape:version="1.4.3 (0d15f75, 2025-12-25)"
   xmlns:inkscape="http://www.inkscape.org/namespaces/inkscape"
   xmlns:sodipodi="http://sodipodi.sourceforge.net/DTD/sodipodi-0.dtd"
   xmlns="http://www.w3.org/2000/svg"
   xmlns:svg="http://www.w3.org/2000/svg">
  <defs
     id="defs1" />
  <sodipodi:namedview
     id="namedview1"
     pagecolor="#ffffff"
     bordercolor="#000000"
     borderopacity="0.25"
     inkscape:showpageshadow="2"
     inkscape:pageopacity="0.0"
     inkscape:pagecheckerboard="0"
     inkscape:deskcolor="#d1d1d1"
     inkscape:zoom="2.9143836"
     inkscape:cx="181.17039"
     inkscape:cy="146"
     inkscape:window-width="1920"
     inkscape:window-height="1111"
     inkscape:window-x="-9"
     inkscape:window-y="-9"
     inkscape:window-maximized="1"
     inkscape:current-layer="g1" />
  <g
     inkscape:groupmode="layer"
     inkscape:label="Image"
     id="g1">
    <g
       id="g2"
       transform="translate(3.0881317,12.352526)">
      <path
         style="fill:#b5dce8"
         d="m 242.44349,232 c 0.99323,-15.5192 1.41933,-22.44017 2.03167,-33 0.30299,-5.225 0.82245,-12.3125 1.15436,-15.75 0.68573,-7.10192 0.57416,-7.17976 -6.62952,-4.62497 -2.475,0.87777 -14.175,4.89612 -26,8.92969 -11.825,4.03356 -26.9,9.21362 -33.5,11.51124 -6.6,2.29762 -20.325,7.01136 -30.5,10.47497 -34.22539,11.65045 -73.454787,25.226 -79.319001,27.44877 -9.178821,3.47914 -7.58618,1.77432 2.578303,-2.7599 C 77.341686,231.96262 88.025,227.19995 96,223.64607 c 13.59551,-6.05853 38.43794,-17.17654 68.5,-30.65657 40.98013,-18.37578 56.37093,-25.25077 68.32262,-30.51939 7.32744,-3.23013 13.67882,-6.56982 14.11418,-7.42154 1.00902,-1.97397 2.1887,-23.2384 1.25857,-22.68639 -0.38245,0.22698 -8.57037,4.81401 -18.19537,10.19339 -26.37794,14.74257 -46.69439,26.12288 -65,36.40993 -18.26362,10.26345 -25.72405,14.44563 -50,28.02916 -9.075,5.07789 -19.111609,10.75641 -22.303576,12.61893 C 89.504457,221.47612 86.729139,223 86.529052,223 c -0.200088,0 -3.788938,2.025 -7.975223,4.5 -4.186286,2.475 -7.786286,4.5 -8,4.5 -0.213715,0 -3.849603,2.04622 -8.079751,4.54715 -13.317335,7.87343 -10.026762,4.38248 6.642669,-7.04715 8.823559,-6.05 18.245065,-12.575 20.93668,-14.5 7.213462,-5.15895 19.317413,-13.66168 38.446573,-27.00778 9.35,-6.52334 19.025,-13.28017 21.5,-15.01517 2.475,-1.735 26.325,-18.41713 53,-37.0714 l 48.5,-33.91685 2.10604,-16.7444 c 1.15832,-9.20942 2.05111,-16.826615 1.98397,-16.9271 -0.10546,-0.157833 -13.8588,11.31971 -51.14595,42.6827 -4.90417,4.125 -19.04784,16.05819 -31.43037,26.5182 -12.38253,10.46002 -24.12757,20.36002 -26.10008,22 -6.02979,5.01329 -30.2261,25.56191 -33.41361,28.37637 -3.40834,3.00945 -26.694724,22.69409 -48.306129,40.83453 -8.012949,6.72601 -14.798231,11.99987 -15.078404,11.7197 -0.280174,-0.28017 0.59173,-1.55251 1.937563,-2.82741 9.125811,-8.64485 62.3218,-59.77036 75.48883,-72.55068 8.82302,-8.56389 23.44802,-22.74592 32.5,-31.51563 9.05197,-8.7697 23.43314,-22.72396 31.95814,-31.00947 67.77177,-65.867833 85.16977,-82.501935 86.31739,-82.527442 0.44956,-0.01 0.5749,0.769332 0.27854,1.731832 -0.29637,0.9625 -1.20211,7.15 -2.01275,13.75 -2.0473,16.668484 -5.42176,41.963146 -6.43683,48.25 -0.46621,2.8875 -0.66125,5.25 -0.43342,5.25 0.22783,0 4.99812,-3.260726 10.60065,-7.246058 15.51824,-11.038822 18.03958,-12.653712 18.91327,-12.11374 0.44318,0.273897 0.56769,0.883225 0.2767,1.354061 -0.46647,0.754754 -2.61715,10.48424 -7.07479,32.005737 -0.74048,3.575 -2.86773,13.1375 -4.72723,21.25 -1.8595,8.1125 -3.30527,14.75 -3.21281,14.75 0.0925,0 5.70851,-2.48681 12.48011,-5.52625 6.7716,-3.03944 12.48848,-5.34977 12.70418,-5.13407 0.21571,0.2157 -5.71465,14.29002 -13.17857,31.27625 -7.46391,16.98624 -18.16608,41.33853 -23.7826,54.11621 -5.61651,12.77768 -10.35922,22.79805 -10.53935,22.26748 -0.35937,-1.05851 6.75941,-40.94944 9.96531,-55.84183 1.10611,-5.13822 1.81877,-9.53455 1.5837,-9.76962 -0.23507,-0.23507 -1.85365,3.96893 -3.59685,9.34221 -11.98475,36.94209 -19.88476,60.35506 -20.58525,61.00773 -0.92493,0.86179 -0.52965,-1.84595 2.95438,-20.23811 5.46066,-28.82673 8.79511,-48.54444 8.29404,-49.04551 -1.06773,-1.06773 -5.84919,1.95058 -6.28425,3.96695 -0.74165,3.4374 -8.41411,50.55528 -9.44016,57.97369 -0.52452,3.79233 -1.47978,7.39233 -2.1228,8 -0.89032,0.84139 -1.00887,-1.39912 -0.49712,-9.39513 z m 24.10487,-86.45007 C 267.26541,142.52562 271,121.75122 271,120.78679 c 0,-0.68942 -7.98647,2.78534 -8.00663,3.48353 -0.004,0.12633 -0.90066,5.40468 -1.99337,11.72968 -2.74266,15.87556 -2.80316,15.35064 1.53116,13.28375 1.94214,-0.92614 3.74988,-2.60636 4.0172,-3.73382 z"
         id="path8" />
      <path
         style="fill:#969cac"
         d="m 242.90672,239.5 c -0.3005,-0.55 -0.23151,-6.175 0.1533,-12.5 0.38481,-6.325 1.02664,-16.93161 1.42628,-23.57024 0.39964,-6.63863 1.01621,-15.59483 1.37016,-19.90265 l 0.64354,-7.83241 3.75,-1.295 c 3.64618,-1.25915 3.75,-1.22906 3.75,1.08681 0,1.92739 -2.69194,18.53752 -10.2934,63.51349 -0.13944,0.825 -0.49938,1.05 -0.79988,0.5 z M 52,238.69461 c 0,-0.23288 11.3625,-11.37053 25.25,-24.75034 13.8875,-13.37981 31.78489,-30.65332 39.77199,-38.38559 C 125.00908,167.8264 144.8009,148.675 161.00382,133 c 16.20292,-15.675 36.66803,-35.500176 45.47802,-44.055947 8.80999,-8.555771 23.21635,-22.505771 32.01415,-31 8.79779,-8.494229 21.28529,-20.595114 27.75,-26.890856 8.41677,-8.196787 11.756,-10.894059 11.76101,-9.5 0.004,1.070742 -0.67923,6.896803 -1.51797,12.946803 -3.54221,25.550799 -7.32473,54.997637 -7.09418,55.228179 0.13662,0.136625 6.68139,-4.268607 14.54393,-9.789403 7.86253,-5.520797 14.4409,-9.892425 14.6186,-9.714729 0.1777,0.177697 -3.02108,15.61248 -7.1084,34.299523 -4.08731,18.68703 -7.43542,34.23756 -7.44023,34.55671 -0.0106,0.70514 -16.19713,8.06467 -16.67855,7.58325 -0.18738,-0.18737 0.78668,-6.32345 2.16456,-13.63572 C 270.87264,125.71554 272,119.56032 272,119.34954 c 0,-0.21078 -2.15379,0.70818 -4.78619,2.04212 l -4.7862,2.42535 -1.84679,12.84149 c -1.01573,7.06283 -2.04802,13.37256 -2.29398,14.02162 -0.24595,0.64907 -1.64861,1.66032 -3.11701,2.24721 -1.46841,0.5869 -3.74057,1.52538 -5.04925,2.08553 l -2.37943,1.01844 0.72575,-12.1596 c 0.61624,-10.32484 0.51045,-12.07699 -0.7011,-11.61207 -0.78476,0.30114 -16.9156,9.20531 -35.84632,19.78705 C 192.98877,162.62842 175.475,172.40695 173,173.77675 c -2.475,1.36979 -11.025,6.18939 -19,10.71022 -7.975,4.52083 -22.375,12.61711 -32,17.99174 -9.625,5.37463 -20.875,11.6807 -25,14.01349 -4.125,2.33279 -11.775,6.63413 -17,9.55855 -5.225,2.92441 -12.111609,6.80934 -15.303576,8.63318 C 61.504457,236.50777 58.630659,238 58.310208,238 c -0.320452,0 5.891158,-4.46324 13.803576,-9.91832 C 87.27209,217.63105 96.165534,211.4198 106.59462,204 c 3.4788,-2.475 17.60812,-12.375 31.39849,-22 51.22689,-35.75386 58.62935,-40.92469 85.8947,-60 l 27.87239,-19.5 0.69943,-5.5 c 2.17678,-17.117158 3.40797,-28.465728 3.11951,-28.75419 -0.38638,-0.386379 -2.03225,0.953609 -23.07914,18.789853 -8.8,7.457584 -30.14138,25.462887 -47.42528,40.011787 C 130.12137,173.30498 82.543324,213.56446 64,229.49817 c -9.270612,7.96595 -12,10.05767 -12,9.19644 z M 250.55519,235 c 0.26979,-1.925 2.95525,-16.97491 5.96767,-33.44424 C 259.53529,185.08643 262,171.33111 262,170.98838 c 0,-0.67451 11.02,-4.35939 11.41567,-3.81718 0.13196,0.18084 -5.06803,16.3038 -11.55554,35.8288 -6.48751,19.525 -11.57474,33.925 -11.30494,32 z"
         id="path7" />
      <path
         style="fill:#5bb3c7"
         d="M 72.113784,228.10299 C 80.026203,222.65964 88.975,216.44484 92,214.29232 101.9275,207.22816 152.58707,171.75824 179.54017,153 c 9.08819,-6.325 28.54704,-19.9577 43.2419,-30.29489 14.69486,-10.33719 27.30112,-19.14166 28.01392,-19.56549 1.31775,-0.78354 5.55419,-29.49644 4.98863,-33.810924 -0.24593,-1.876114 -1.99458,-0.720534 -12.86245,8.5 -6.9178,5.869217 -20.4178,17.260257 -30,25.313424 -24.78765,20.83229 -80.16291,67.61 -116.005948,97.9949 C 76.466191,218.47295 57.861164,234.06671 55.5,235.84993 c -2.361682,1.78362 1.113923,-1.61971 33.477601,-32.78141 38.891209,-37.44681 53.401989,-51.49071 70.512599,-68.24388 8.80539,-8.62144 17.5848,-17.14097 19.5098,-18.93228 3.70727,-3.44981 50.41069,-48.647669 80.32141,-77.73213 9.80781,-9.536874 17.98545,-17.186704 18.17253,-16.999622 0.34111,0.341109 -2.62717,24.021055 -6.59867,52.641981 -1.16789,8.416424 -1.92736,15.498656 -1.68772,15.738294 0.23964,0.239637 6.86869,-4.081311 14.73123,-9.602107 7.86253,-5.520797 14.4409,-9.892425 14.6186,-9.714729 0.1777,0.177697 -3.02108,15.61248 -7.1084,34.299523 -4.08731,18.68703 -7.43542,34.23756 -7.44023,34.55671 -0.0106,0.70514 -16.19713,8.06467 -16.67855,7.58325 -0.18738,-0.18737 0.78668,-6.32345 2.16456,-13.63572 C 270.87264,125.71554 272,119.56032 272,119.34954 c 0,-0.21078 -2.17947,0.72119 -4.84326,2.07104 l -4.84327,2.45426 -1.70401,10.81258 c -2.67512,16.97456 -2.37712,16.1534 -6.65408,18.33534 -2.13164,1.08748 -4.37456,1.97724 -4.98427,1.97724 -1.06185,0 -0.71416,-11.09513 0.61893,-19.75 0.31832,-2.06669 0.0835,-3.25 -0.64502,-3.25 -0.63008,0 -16.96298,8.83893 -36.29531,19.64206 C 193.31737,162.4452 175.475,172.40534 173,173.7757 c -2.475,1.37037 -11.025,6.19044 -19,10.71127 -7.975,4.52083 -22.375,12.61711 -32,17.99174 -9.625,5.37463 -20.875,11.6807 -25,14.01349 -4.125,2.33279 -11.775,6.63413 -17,9.55855 -5.225,2.92441 -12.111609,6.80934 -15.303576,8.63318 C 61.504457,236.50777 58.630659,238 58.310208,238 c -0.320452,0 5.891158,-4.45365 13.803576,-9.89701 z M 243.4648,228.5 c 1.43091,-30.01859 2.75265,-49.24034 3.51523,-51.12152 0.76006,-1.87496 5.60932,-4.12247 6.64977,-3.08201 0.42929,0.42929 -9.41415,61.57188 -10.17523,63.20353 -0.25655,0.55 -0.25195,-3.5 0.0102,-9 z m 7.09039,6.5 c 0.26979,-1.925 2.95525,-16.97491 5.96767,-33.44424 C 259.53529,185.08643 262,171.33111 262,170.98838 c 0,-0.67451 11.02,-4.35939 11.41567,-3.81718 0.13196,0.18084 -5.06803,16.3038 -11.55554,35.8288 -6.48751,19.525 -11.57474,33.925 -11.30494,32 z"
         id="path6" />
      <path
         style="fill:#49a0b6"
         d="m 243.4648,228.5 c 1.43091,-30.01859 2.75265,-49.24034 3.51523,-51.12152 0.76006,-1.87496 5.60932,-4.12247 6.64977,-3.08201 0.42929,0.42929 -9.41415,61.57188 -10.17523,63.20353 -0.25655,0.55 -0.25195,-3.5 0.0102,-9 z M 59,231.99871 c 3.025,-2.94892 16.514921,-15.96751 29.977601,-28.93019 38.891209,-37.44681 53.401989,-51.49071 70.512599,-68.24388 8.80539,-8.62144 17.5848,-17.14097 19.5098,-18.93228 3.70727,-3.44981 50.41069,-48.647669 80.32141,-77.73213 9.80781,-9.536874 17.98545,-17.186704 18.17253,-16.999622 0.34029,0.340291 -2.68999,24.554995 -6.4873,51.839392 -1.10992,7.975 -2.01548,15.268225 -2.01234,16.207167 0.004,1.237032 3.19087,-0.553001 11.57176,-6.5 6.36133,-4.513942 12.88633,-9.03609 14.5,-10.049218 3.31972,-2.084262 3.49869,-1.626709 1.89389,4.842051 -0.95392,3.845137 -2.77165,12.134833 -8.33252,38 -3.23944,15.06761 -5.27895,23.51731 -5.75686,23.85074 C 282.02733,139.93906 268.29802,146 267.80859,146 c -0.29254,0 0.69145,-6.0644 2.18666,-13.47643 1.4952,-7.41204 2.54089,-13.6541 2.32375,-13.87123 -0.21713,-0.21714 -2.56496,0.76241 -5.21738,2.17678 l -4.8226,2.57159 -1.80618,12.04964 c -0.9934,6.62731 -2.13638,12.9736 -2.53995,14.10288 -0.7198,2.01415 -8.4413,6.27169 -9.48377,5.22922 -0.29177,-0.29176 -0.10849,-5.42468 0.40728,-11.40647 0.51578,-5.98179 0.64618,-11.19138 0.2898,-11.57687 -0.35639,-0.38549 -8.52258,3.69913 -18.14709,9.07693 -9.62451,5.3778 -25.14911,14.05813 -34.49911,19.28962 -9.35,5.23149 -19.25,10.75313 -22,12.27032 -7.73762,4.26888 -22.14187,12.44397 -31.28068,17.75327 -4.55437,2.64591 -8.47891,4.81075 -8.7212,4.81075 -0.24229,0 -3.86566,2.025 -8.05195,4.5 -4.18628,2.475 -7.77944,4.5 -7.98479,4.5 -0.20535,0 -2.58729,1.30538 -5.2932,2.90084 -2.70591,1.59546 -7.33821,4.23999 -10.29401,5.87673 -11.273464,6.24257 -23.619559,13.134 -29.87417,16.67536 -8.407599,4.76039 -6.037667,2.57132 6.5,-6.00396 5.5,-3.76179 16.975,-11.77654 25.5,-17.81056 8.525,-6.03403 19.15174,-13.48363 23.61497,-16.55468 9.72166,-6.68926 44.93534,-31.28621 72.18213,-50.41963 10.83659,-7.60974 22.6279,-15.84717 26.2029,-18.3054 11.82648,-8.13206 23.34276,-16.30146 24.22836,-17.18706 1.00343,-1.00343 4.98464,-30.575012 4.55626,-33.842944 -0.24593,-1.876114 -1.99458,-0.720534 -12.86245,8.5 -6.9178,5.869217 -20.4178,17.260257 -30,25.313424 -24.78765,20.83229 -80.16291,67.61 -116.005948,97.9949 C 57.900945,234.2111 50.810089,239.98266 59,231.99871 Z m 4,2.60828 c 0,-0.21616 0.698372,-0.661 1.551938,-0.98855 0.889925,-0.34149 1.291322,-0.17385 0.940983,0.39301 C 64.905663,234.96166 63,235.4169 63,234.60699 Z m 189.06768,-4.9435 c -0.0372,-0.46008 2.21786,-13.51008 5.0113,-29 3.66454,-20.32023 5.53148,-28.51418 6.70381,-29.42276 1.58232,-1.22633 8.33961,-3.45166 8.87013,-2.92114 0.28117,0.28117 -18.16014,56.77181 -19.64583,60.18041 -0.47945,1.1 -0.90219,1.62357 -0.93941,1.16349 z"
         id="path5" />
      <path
         style="fill:#3aa2b9"
         d="m 243.4648,228.5 c 1.43091,-30.01859 2.75265,-49.24034 3.51523,-51.12152 0.76006,-1.87496 5.60932,-4.12247 6.64977,-3.08201 0.42929,0.42929 -9.41415,61.57188 -10.17523,63.20353 -0.25655,0.55 -0.25195,-3.5 0.0102,-9 z M 59,231.99871 c 3.025,-2.94892 16.514921,-15.96751 29.977601,-28.93019 38.891209,-37.44681 53.401989,-51.49071 70.512599,-68.24388 8.80539,-8.62144 17.5848,-17.14097 19.5098,-18.93228 3.70727,-3.44981 50.41069,-48.647669 80.32141,-77.73213 9.80781,-9.536874 17.98582,-17.186331 18.17336,-16.998795 0.33078,0.330783 -2.03049,19.198926 -6.58303,52.602793 -2.01173,14.760927 -2.04218,19.486078 -0.10737,16.66279 0.61947,-0.903922 22.56044,-16.791691 26.10173,-18.900629 1.12488,-0.6699 1.28134,-0.256283 0.78231,2.06812 C 297.34533,75.192529 295.9194,81.675 294.51967,88 c -1.39973,6.325 -3.6574,16.675 -5.01704,23 -4.23238,19.68883 -6.16855,28.0034 -6.5933,28.31385 -0.22513,0.16454 -3.67183,1.71056 -7.65933,3.4356 -8.56673,3.70606 -8.20743,4.62657 -4.76122,-12.198 1.34609,-6.57171 2.28434,-12.11167 2.08498,-12.31102 -0.19935,-0.19936 -2.58474,0.83775 -5.30085,2.30469 l -4.93839,2.66715 -1.76959,11.64386 c -2.49403,16.41069 -2.33972,15.98833 -6.64357,18.18399 -6.67832,3.40702 -6.34638,4.82983 -4.40108,-18.86428 0.34815,-4.24042 0.31266,-4.29668 -1.83263,-2.90558 -1.20321,0.78022 -4.88765,2.91059 -8.18765,4.73417 -3.3,1.82357 -13.65,7.60193 -23,12.84078 -9.35,5.23886 -18.8,10.50398 -21,11.70028 -2.2,1.19629 -9.4,5.21628 -16,8.9333 -6.6,3.71702 -15.825,8.89597 -20.5,11.50878 -4.675,2.61281 -10.8823,6.15948 -13.79401,7.88149 C 142.29429,190.59108 139.72659,192 139.5,192 c -0.22659,0 -2.59293,1.28593 -5.25852,2.85762 -2.6656,1.57169 -7.0729,4.09045 -9.79401,5.59725 -2.72111,1.5068 -8.77247,4.90814 -13.44747,7.55854 C 83.777312,223.44677 66.766208,232.77298 68.623647,231.24592 69.791653,230.28566 76.017231,225.9 82.458265,221.5 88.8993,217.1 96.359692,211.925 99.036914,210 110.65573,201.64573 120.15569,194.95536 131.43262,187.18524 154.12067,171.55253 156.51119,169.88817 165.5,163.4663 c 4.95,-3.53642 12.6,-8.89985 17,-11.91874 10.78628,-7.40059 35.03436,-24.32096 50,-34.89013 2.75,-1.94213 8.375,-5.85523 12.5,-8.69577 7.12986,-4.90974 7.51303,-5.36936 7.76411,-9.313143 0.14526,-2.281684 0.96844,-9.402584 1.82928,-15.824221 0.86085,-6.421637 1.417,-12.574341 1.2359,-13.672676 -0.27357,-1.659082 -2.45747,-0.191142 -12.90712,8.675704 -6.9178,5.869972 -20.4178,17.261629 -30,25.314796 -24.78765,20.83229 -80.16291,67.61 -116.005948,97.9949 C 57.900945,234.2111 50.810089,239.98266 59,231.99871 Z M 260.12756,97.25 c 1.24387,-1.586056 1.2085,-1.621426 -0.37756,-0.377555 -0.9625,0.754844 -1.75,1.542344 -1.75,1.75 0,0.823034 0.82119,0.293303 2.12756,-1.372445 z m 6.28834,-3.891444 c 0.52667,-1.372472 0.38034,-1.434339 -0.89301,-0.377555 C 263.78765,94.421127 263.60705,95 264.89301,95 c 0.49116,0 1.17646,-0.73865 1.52289,-1.641444 z M 252.48717,227.5 c 2.38653,-14.56047 7.92378,-45.16208 9.02981,-49.9032 0.75893,-3.25326 1.96559,-6.29181 2.68145,-6.75232 1.41305,-0.90902 8.04773,-2.93166 8.41423,-2.56515 0.26637,0.26637 -18.41173,57.30638 -19.71963,60.22067 -0.7046,1.57003 -0.79186,1.35504 -0.40586,-1 z"
         id="path4" />
      <path
         style="fill:#657289"
         d="m 243.4648,228.5 c 1.43091,-30.01859 2.75265,-49.24034 3.51523,-51.12152 0.76006,-1.87496 5.60932,-4.12247 6.64977,-3.08201 0.42929,0.42929 -9.41415,61.57188 -10.17523,63.20353 -0.25655,0.55 -0.25195,-3.5 0.0102,-9 z M 59,231.99871 c 3.025,-2.94892 16.514921,-15.96751 29.977601,-28.93019 38.891209,-37.44681 53.401989,-51.49071 70.512599,-68.24388 8.80539,-8.62144 17.5848,-17.14097 19.5098,-18.93228 3.70727,-3.44981 50.41069,-48.647669 80.32141,-77.73213 9.80781,-9.536874 17.98582,-17.186331 18.17336,-16.998795 0.32405,0.32405 -1.61012,15.803029 -6.63386,53.090307 l -2.25698,16.751742 -8.00019,5.466696 c -4.40011,3.006683 -8.09053,5.3684 -8.20094,5.24826 -0.11041,-0.12014 0.66842,-6.96844 1.73073,-15.21844 1.0623,-8.25 1.80434,-15.977087 1.64897,-17.171304 -0.24401,-1.875453 -1.99629,-0.717285 -12.86033,8.5 -6.9178,5.869217 -20.4178,17.260257 -30,25.313424 -24.78765,20.83229 -80.16291,67.61 -116.005948,97.9949 C 57.900945,234.2111 50.810089,239.98266 59,231.99871 Z M 248.51897,146.75 c 0.36104,-4.5375 0.78418,-9.98442 0.94033,-12.10427 0.26384,-3.58185 0.71705,-4.09836 6.4123,-7.3079 3.94953,-2.22575 6.12726,-2.98864 6.12521,-2.14574 -0.002,0.71935 -0.67976,5.35791 -1.50668,10.30791 -0.82691,4.95 -1.74612,10.46389 -2.04269,12.25309 -0.41972,2.53212 -1.40673,3.69566 -4.45349,5.25 -6.08837,3.10605 -6.20871,2.9686 -5.47498,-6.25309 z"
         id="path3" />
      <path
         style="fill:#293353"
         d="M 69,222.9575 C 73.675,218.32858 84.030041,208.23199 92.011201,200.52064 108.59846,184.49413 251.06924,46.70798 266.96281,31.32168 c 5.78263,-5.598076 10.56529,-10.098076 10.62813,-10 0.0628,0.09808 -0.70131,6.02832 -1.6981,13.17832 -0.99679,7.15 -2.53573,18.625 -3.41985,25.5 -2.09167,16.264846 -3.45197,25.970917 -4.01963,28.681034 -0.42754,2.041144 -14.33716,12.768506 -15.30339,11.802266 -0.39538,-0.39538 0.91058,-12.396136 2.87673,-26.434842 0.49695,-3.548348 0.72334,-6.631747 0.50309,-6.851999 -0.63567,-0.635673 -2.83304,1.117287 -28.58472,22.803541 -13.38867,11.275 -33.366,28.09426 -44.39406,37.37612 -22.29454,18.76441 -51.7068,43.63402 -67.01621,56.66572 C 98.007578,199.81261 65.524068,227.30338 63,229.3483 c -1.375,1.11398 1.325,-1.76188 6,-6.3908 z m 174.71461,4.79159 c 0.17203,-1.787 0.96906,-13.99903 1.77118,-27.13785 0.80212,-13.13881 1.63484,-24.0652 1.85049,-24.28085 0.21565,-0.21566 1.80396,-0.79702 3.52956,-1.29191 2.89762,-0.83103 3.10104,-0.73311 2.66109,1.28085 -0.26201,1.19937 -2.35272,13.65567 -4.64602,27.68067 -2.29331,14.025 -4.46427,25.83709 -4.82437,26.24909 -0.3601,0.412 -0.51397,-0.713 -0.34193,-2.5 z m 4.7178,-74.99909 c 0.25878,-1.2375 0.75864,-6.6281 1.11081,-11.97911 l 0.6403,-9.72911 5.27996,-3.02089 C 258.36747,126.3594 260.9425,125 261.18577,125 c 0.24327,0 -0.35915,5.2875 -1.33873,11.75 -0.97957,6.4625 -1.79589,12.22283 -1.81404,12.80073 -0.0277,0.88319 -8.05407,5.44927 -9.5788,5.44927 -0.27077,0 -0.28057,-1.0125 -0.0218,-2.25 z"
         id="path2" />
    </g>
  </g>
</svg>
